<svg width="65" height="65" viewBox="0 0 65 65" fill="none" xmlns="http://www.w3.org/2000/svg">
<path d="M34.4042 3.90508V1.9043C34.4042 0.851729 33.5525 0 32.4999 0C31.4474 0 30.5956 0.851729 30.5956 1.9043V3.90508C13.6327 4.89925 0 18.9735 0 36.1816C0 37.2342 0.851727 38.0859 1.90429 38.0859C2.95686 38.0859 3.80859 37.2342 3.80859 36.1816C3.80859 35.7075 5.83564 34.2773 9.52147 34.2773C13.2073 34.2773 15.3613 35.7075 15.3613 36.1816C15.3613 37.2342 16.213 38.0859 17.2656 38.0859C18.3182 38.0859 19.1699 37.2342 19.1699 36.1816C19.1699 35.7075 21.1969 34.2773 24.8828 34.2773C28.5686 34.2773 30.5956 35.7075 30.5956 36.1816V57.3828C30.5956 61.5838 34.0118 65 38.2128 65C42.4138 65 45.83 61.5838 45.83 57.3828C45.83 56.3303 44.9783 55.4785 43.9257 55.4785C42.8731 55.4785 42.0214 56.3303 42.0214 57.3828C42.0214 59.4824 40.3124 61.1914 38.2128 61.1914C36.1133 61.1914 34.4042 59.4824 34.4042 57.3828V36.1816C34.4042 35.7075 36.4313 34.2773 40.1171 34.2773C43.4487 34.2773 45.3372 35.4157 45.6862 35.9903C45.6853 36.0007 45.6859 36.0113 45.685 36.0217C45.6031 37.0687 46.386 37.9855 47.4349 38.0692C47.4852 38.0729 47.5354 38.0748 47.5856 38.0748C47.6024 38.0748 47.6167 38.0661 47.6335 38.0658C47.6688 38.0677 47.6986 38.0859 47.7344 38.0859C48.787 38.0859 49.6387 37.2342 49.6387 36.1816C49.6387 35.7075 51.6658 34.2773 55.3516 34.2773C59.0374 34.2773 61.1914 35.7075 61.1914 36.1816C61.1914 37.2342 62.0431 38.0859 63.0957 38.0859C64.1483 38.0859 65 37.2342 65 36.1816C64.9999 18.9735 51.3672 4.89925 34.4042 3.90508Z" fill="#F47660"/>
</svg>
